# xmcd CD database file
#
# Track frame offsets:
#	150
#	20368
#	40050
#	51997
#	66496
#	87440
#	102528
#	119658
#	135351
#	150539
#	168585
#
# Disc length: 2475 seconds
#
# Revision: 0
# Processed by: cddbd v1.5.1PL0 Copyright (c) Steve Scherf et al.
# Submitted via: CDex 1.50
#
DISCID=9709a90b
DTITLE=jessica belle - just walk away
DYEAR=2005
DGENRE=Country
TTITLE0=Just Walk Away
TTITLE1=Whiskey Lullaby
TTITLE2=Long Gone
TTITLE3=It's All Right
TTITLE4=Never Reached The Stars
TTITLE5=No Longer Mine
TTITLE6=Soft Place To Fall
TTITLE7=One More Chance
TTITLE8=I Can't Understand
TTITLE9=Past The Point Of Rescue
TTITLE10=Dream River
EXTD=YEAR: 2005
EXTT0=
EXTT1=
EXTT2=
EXTT3=
EXTT4=
EXTT5=
EXTT6=
EXTT7=
EXTT8=
EXTT9=
EXTT10=
PLAYORDER=
